HIERARCHY
ROOT Hips
{
	OFFSET 0.000000 0.000000 0.000000
	CHANNELS 6 Xposition Yposition Zposition Zrotation Yrotation Xrotation 
	JOINT LowerBack
	{
		OFFSET 0.000000 0.000000 0.000000
		CHANNELS 3 Zrotation Yrotation Xrotation
		JOINT Spine
		{
			OFFSET 0.028270 2.035590 -0.193380
			CHANNELS 3 Zrotation Yrotation Xrotation
			JOINT Spine1
			{
				OFFSET 0.056720 2.048850 -0.042750
				CHANNELS 3 Zrotation Yrotation Xrotation
				JOINT Neck
				{
					OFFSET 0.000000 0.000000 0.000000
					CHANNELS 3 Zrotation Yrotation Xrotation
					JOINT Neck1
					{
						OFFSET -0.054170 1.746240 0.172020
						CHANNELS 3 Zrotation Yrotation Xrotation
						JOINT Head
						{
							OFFSET 0.104070 1.761360 -0.123970
							CHANNELS 3 Zrotation Yrotation Xrotation
							End Site
							{
								OFFSET 0.000000 0.000000 0.000000
							}
						}
					}
				}
				JOINT LeftShoulder
				{
					OFFSET 0.000000 0.000000 0.000000
					CHANNELS 3 Zrotation Yrotation Xrotation
					JOINT LeftArm
					{
						OFFSET 3.362410 1.200890 -0.311210
						CHANNELS 3 Zrotation Yrotation Xrotation
						JOINT LeftForeArm
						{
							OFFSET 4.983000 -0.000000 -0.000000
							CHANNELS 3 Zrotation Yrotation Xrotation
							JOINT LeftHand
							{
								OFFSET 3.483560 -0.000000 -0.000000
								CHANNELS 3 Zrotation Yrotation Xrotation
								JOINT LeftFingerBase
								{
									OFFSET 0.000000 0.000000 0.000000
									CHANNELS 3 Zrotation Yrotation Xrotation
									JOINT LeftHandIndex1
									{
										OFFSET 0.715260 -0.000000 -0.000000
										CHANNELS 3 Zrotation Yrotation Xrotation
										End Site
										{
											OFFSET 0.000000 0.000000 0.000000
										}
									}
								}
								JOINT LThumb
								{
									OFFSET 0.000000 0.000000 0.000000
									CHANNELS 3 Zrotation Yrotation Xrotation
									End Site
									{
										OFFSET 0.000000 0.000000 0.000000
									}
								}
							}
						}
					}
				}
				JOINT RightShoulder
				{
					OFFSET 0.000000 0.000000 0.000000
					CHANNELS 3 Zrotation Yrotation Xrotation
					JOINT RightArm
					{
						OFFSET -3.136600 1.374050 -0.404650
						CHANNELS 3 Zrotation Yrotation Xrotation
						JOINT RightForeArm
						{
							OFFSET -5.241900 -0.000000 -0.000000
							CHANNELS 3 Zrotation Yrotation Xrotation
							JOINT RightHand
							{
								OFFSET -3.444170 -0.000000 -0.000000
								CHANNELS 3 Zrotation Yrotation Xrotation
								JOINT RightFingerBase
								{
									OFFSET 0.000000 0.000000 0.000000
									CHANNELS 3 Zrotation Yrotation Xrotation
									JOINT RightHandIndex1
									{
										OFFSET -0.622530 -0.000000 -0.000000
										CHANNELS 3 Zrotation Yrotation Xrotation
										End Site
										{
											OFFSET 0.000000 0.000000 0.000000
										}
									}
								}
								JOINT RThumb
								{
									OFFSET 0.000000 0.000000 0.000000
									CHANNELS 3 Zrotation Yrotation Xrotation
									End Site
									{
										OFFSET 0.000000 0.000000 0.000000
									}
								}
							}
						}
					}
				}
			}
		}
	}
}
}
MOTION
Frames: 18
Frame Time: 0.008333
5.664579 17.005213 0.052046 11.494629 85.235973 37.097840 -4.953681 1.252587 -9.379819 -1.640730 1.318212 -4.656329 -4.205292 1.178374 0.738182 8.563462 -5.357849 -6.217507 -0.860741 -0.087766 0.399737 0.000000 0.000000 0.000000 0.588323 16.412510 2.007012 -21.223128 -6.934265 -44.372050 -0.181312 -85.120216 -0.187825 21.757960 0.548309 0.010169 -0.431623 0.502137 0.000000 0.000000 0.000000 0.000000 0.000000 0.000000 0.000000 -0.354595 0.300505 -1.500810 30.254837 31.613144 -13.784899 -179.557286 87.604581 179.864549 -14.127552 7.729003 -1.049960 0.143318 -0.649535 -0.000000 0.000000 0.000000 0.000000 0.000000 0.000000 0.000000 
5.899475 16.928569 0.040460 9.351511 85.220334 34.825113 -5.055218 1.232964 -9.499288 -1.641071 1.298642 -4.672268 -4.135652 1.151916 0.787523 8.731602 -5.535035 -6.246128 -0.822111 -0.084528 0.392351 0.000000 0.000000 0.000000 0.552952 16.622205 1.965871 -21.950578 -6.301684 -45.599970 -0.175446 -85.710033 -0.192157 22.468565 0.367964 -0.025902 -0.439003 0.501967 0.000000 0.000000 0.000000 0.000000 0.000000 0.000000 0.000000 -0.401061 0.080529 -1.565611 29.237145 32.167360 -13.650412 -179.520195 86.744271 179.863942 -14.075041 7.687466 -1.041488 0.144126 -0.654165 -0.000000 0.000000 0.000000 0.000000 0.000000 0.000000 0.000000 
6.131707 16.852255 0.028882 7.124048 85.154025 32.439782 -5.134026 1.215122 -9.581140 -1.638184 1.280253 -4.679676 -4.074858 1.128047 0.833645 8.884000 -5.707649 -6.274516 -0.787869 -0.081580 0.384734 0.000000 0.000000 0.000000 0.490307 16.850924 1.932782 -22.748187 -5.682750 -46.653277 -0.170624 -86.250113 -0.195813 23.163672 0.219346 -0.057369 -0.445928 0.499999 0.000000 0.000000 0.000000 0.000000 0.000000 0.000000 0.000000 -0.446629 -0.133348 -1.644259 28.363451 32.761553 -13.490385 -179.478957 85.881517 179.862322 -14.120471 7.694044 -1.046612 0.146355 -0.659942 -0.000000 0.000000 0.000000 0.000000 0.000000 0.000000 0.000000 
6.360757 16.778316 0.017982 5.019082 85.025413 30.140828 -5.208616 1.199372 -9.615395 -1.635826 1.265585 -4.676896 -4.021461 1.109519 0.874748 9.022304 -5.863149 -6.299366 -0.757584 -0.078934 0.377624 0.000000 0.000000 0.000000 0.419801 17.100661 1.907612 -23.659339 -5.097406 -47.530430 -0.166666 -86.717549 -0.198774 23.831138 0.120532 -0.079433 -0.451979 0.496165 0.000000 0.000000 0.000000 0.000000 0.000000 0.000000 0.000000 -0.495528 -0.327236 -1.737119 27.672467 33.372079 -13.289840 -179.432050 85.005897 179.859639 -14.268151 7.743374 -1.065030 0.150197 -0.666836 -0.000000 0.000000 0.000000 0.000000 0.000000 0.000000 0.000000 
6.586326 16.708877 0.008112 3.305920 84.837001 28.195203 -5.295042 1.181373 -9.595977 -1.637271 1.252141 -4.662257 -3.976409 1.094054 0.912141 9.149105 -6.007187 -6.321047 -0.732248 -0.076652 0.370792 0.000000 0.000000 0.000000 0.329806 17.371321 1.889630 -24.683644 -4.555484 -48.237783 -0.163344 -87.099064 -0.200999 24.462975 0.106042 -0.083395 -0.456818 0.489913 0.000000 0.000000 0.000000 0.000000 0.000000 0.000000 0.000000 -0.537424 -0.509560 -1.842463 27.178754 34.012486 -13.022880 -179.379155 84.122639 179.855913 -14.515453 7.840597 -1.097639 0.155766 -0.674913 -0.000000 0.000000 0.000000 0.000000 0.000000 0.000000 0.000000 
6.808337 16.645718 -0.000410 2.185183 84.598259 26.805071 -5.411746 1.156591 -9.525555 -1.645738 1.237207 -4.635954 -3.938477 1.078858 0.947483 9.268248 -6.132972 -6.337558 -0.712479 -0.074812 0.364752 0.000000 0.000000 0.000000 0.233225 17.662417 1.877906 -25.850216 -4.074228 -48.773967 -0.160557 -87.377035 -0.202485 25.048630 0.197092 -0.062859 -0.460043 0.481102 0.000000 0.000000 0.000000 0.000000 0.000000 0.000000 0.000000 -0.565561 -0.675951 -1.958166 26.896185 34.670294 -12.665651 -179.320258 83.229026 179.851337 -14.842196 7.987442 -1.143539 0.162851 -0.684146 -0.000000 0.000000 0.000000 0.000000 0.000000 0.000000 0.000000 
7.026776 16.590200 -0.007532 1.751395 84.317043 26.064805 -5.570346 1.122218 -9.405810 -1.663222 1.219108 -4.597780 -3.906799 1.062204 0.983302 9.381951 -6.241614 -6.348304 -0.698884 -0.073470 0.359665 0.000000 0.000000 0.000000 0.129920 17.971207 1.871219 -27.168439 -3.663415 -49.140199 -0.158228 -87.539022 -0.203215 25.578711 0.417105 -0.010724 -0.461296 0.469498 0.000000 0.000000 0.000000 0.000000 0.000000 0.000000 0.000000 -0.571866 -0.829577 -2.080553 26.823625 35.346523 -12.194611 -179.256518 82.330864 179.846207 -15.217019 8.188788 -1.201929 0.171019 -0.694554 -0.000000 0.000000 0.000000 0.000000 0.000000 0.000000 0.000000 
7.241784 16.543194 -0.013726 1.860775 83.990832 25.830130 -5.764272 1.081987 -9.241829 -1.688230 1.200614 -4.548401 -3.880665 1.046753 1.022161 9.489388 -6.332648 -6.352175 -0.691910 -0.072688 0.355966 0.000000 0.000000 0.000000 0.015441 18.293434 1.868343 -28.641549 -3.323589 -49.337135 -0.156224 -87.577475 -0.203141 26.043271 0.784567 0.078906 -0.460255 0.454940 0.000000 0.000000 0.000000 0.000000 0.000000 0.000000 0.000000 -0.552436 -0.968733 -2.205131 26.947446 36.039156 -11.589884 -179.190203 81.437091 179.840933 -15.597320 8.450002 -1.270711 0.179587 -0.706157 -0.000000 0.000000 0.000000 0.000000 0.000000 0.000000 0.000000 
7.453575 16.505094 -0.019532 2.325548 83.615826 25.911695 -5.980986 1.041058 -9.038457 -1.718045 1.185315 -4.488406 -3.859001 1.035996 1.066890 9.589490 -6.405757 -6.348793 -0.691669 -0.072488 0.353883 0.000000 0.000000 0.000000 -0.113635 18.627778 1.867858 -30.268094 -3.060309 -49.364209 -0.154469 -87.484490 -0.202193 26.430112 1.305382 0.208430 -0.456620 0.437532 0.000000 0.000000 0.000000 0.000000 0.000000 0.000000 0.000000 -0.504563 -1.091001 -2.326985 27.242910 36.743467 -10.839960 -179.124365 80.559734 179.835985 -15.934299 8.776536 -1.347285 0.187679 -0.718978 -0.000000 0.000000 0.000000 0.000000 0.000000 0.000000 0.000000 
7.662476 16.475919 -0.025807 2.890065 83.187986 26.054248 -6.196133 1.006880 -8.803372 -1.747562 1.177855 -4.419205 -3.840996 1.034392 1.119787 9.679498 -6.460944 -6.338006 -0.698045 -0.072879 0.353668 0.000000 0.000000 0.000000 -0.266942 18.969855 1.868849 -32.034452 -2.870158 -49.221444 -0.152827 -87.258413 -0.200251 26.725800 1.975337 0.377246 -0.450198 0.417490 0.000000 0.000000 0.000000 0.000000 0.000000 0.000000 0.000000 -0.428647 -1.192513 -2.440825 27.674340 37.452964 -9.941137 -179.062795 79.710204 179.831867 -16.176568 9.170466 -1.427457 0.194321 -0.733003 -0.000000 0.000000 0.000000 0.000000 0.000000 0.000000 0.000000 
7.868817 16.455330 -0.033060 3.474400 82.715824 26.179387 -6.399346 0.981057 -8.543142 -1.774466 1.178608 -4.341840 -3.825408 1.042125 1.183325 9.759966 -6.500474 -6.321216 -0.710651 -0.073815 0.355018 0.000000 0.000000 0.000000 -0.446949 19.318370 1.870233 -33.920264 -2.761102 -48.906844 -0.151407 -86.895641 -0.197211 26.915941 2.770938 0.578453 -0.440909 0.395414 0.000000 0.000000 0.000000 0.000000 0.000000 0.000000 0.000000 -0.321626 -1.274075 -2.541285 28.201275 38.158681 -8.900092 -179.009351 78.901827 179.829070 -16.275584 9.629059 -1.505731 0.198509 -0.748118 -0.000000 0.000000 0.000000 0.000000 0.000000 0.000000 0.000000 
8.073104 16.442796 -0.042222 3.885834 82.206702 26.103851 -6.560296 0.968593 -8.270655 -1.792452 1.189377 -4.259207 -3.811520 1.060648 1.258278 9.827324 -6.526012 -6.299359 -0.729062 -0.075266 0.357950 0.000000 0.000000 0.000000 -0.667512 19.662538 1.871797 -35.892242 -2.717840 -48.420839 -0.150242 -86.408022 -0.192927 26.987576 3.658735 0.801751 -0.428906 0.371878 0.000000 0.000000 0.000000 0.000000 0.000000 0.000000 0.000000 -0.186951 -1.333264 -2.623141 28.776049 38.850140 -7.732585 -178.968201 78.144530 179.828012 -16.191495 10.141796 -1.574912 0.199370 -0.764074 -0.000000 0.000000 0.000000 0.000000 0.000000 0.000000 0.000000 
8.275772 16.437694 -0.053698 4.119974 81.681537 25.834529 -6.667966 0.967429 -7.997045 -1.799147 1.207005 -4.173768 -3.797992 1.086470 1.344956 9.881748 -6.541565 -6.274749 -0.752528 -0.077149 0.361959 0.000000 0.000000 0.000000 -0.931952 19.993898 1.872983 -37.915154 -2.734897 -47.761619 -0.149825 -85.807308 -0.187347 26.930321 4.587752 1.031241 -0.414539 0.347756 0.000000 0.000000 0.000000 0.000000 0.000000 0.000000 0.000000 -0.025331 -1.373214 -2.681762 29.353254 39.515438 -6.464122 -178.942550 77.446408 179.829010 -15.895910 10.691312 -1.626807 0.196180 -0.780474 -0.000000 0.000000 0.000000 0.000000 0.000000 0.000000 0.000000 
8.477185 16.439369 -0.067686 4.185962 81.163303 25.396035 -6.713428 0.974031 -7.734388 -1.792648 1.227080 -4.088427 -3.783391 1.114800 1.442306 9.923255 -6.552480 -6.249729 -0.780115 -0.079366 0.366538 0.000000 0.000000 0.000000 -1.241057 20.300426 1.873157 -39.951308 -2.801079 -46.927321 -0.150971 -85.113358 -0.180507 26.737871 5.498753 1.248625 -0.398368 0.323957 0.000000 0.000000 0.000000 0.000000 0.000000 0.000000 0.000000 0.160083 -1.399191 -2.713522 29.891937 40.142549 -5.127036 -178.934509 76.810154 179.832227 -15.376944 11.254563 -1.653119 0.188512 -0.796809 -0.000000 0.000000 0.000000 0.000000 0.000000 0.000000 0.000000 
8.677713 16.447197 -0.084100 4.105523 80.675548 24.828188 -6.691159 0.983884 -7.494444 -1.771757 1.244532 -4.006315 -3.766095 1.140161 1.547726 9.951600 -6.564917 -6.226520 -0.810821 -0.081818 0.371215 0.000000 0.000000 0.000000 -1.592255 20.566906 1.871595 -41.963027 -2.898396 -45.918051 -0.154775 -84.354247 -0.172549 26.408978 6.332957 1.436306 -0.381126 0.301306 0.000000 0.000000 0.000000 0.000000 0.000000 0.000000 0.000000 0.364372 -1.417912 -2.715867 30.357871 40.718761 -3.758365 -178.945000 76.237809 179.837652 -14.641354 11.804955 -1.647453 0.176285 -0.812451 -0.000000 0.000000 0.000000 0.000000 0.000000 0.000000 0.000000 
8.877487 16.460658 -0.102518 3.938483 80.242589 24.206796 -6.606962 0.990434 -7.284872 -1.737491 1.253323 -3.929675 -3.744224 1.156167 1.658056 9.967937 -6.586060 -6.207537 -0.843296 -0.084370 0.375364 0.000000 0.000000 0.000000 -1.974282 20.783462 1.867128 -43.918390 -3.018897 -44.733023 -0.162523 -83.558959 -0.163736 25.946580 7.035481 1.578887 -0.363598 0.280577 0.000000 0.000000 0.000000 0.000000 0.000000 0.000000 0.000000 0.581356 -1.439227 -2.688610 30.727197 41.233560 -2.398141 -178.972982 75.722695 179.845065 -13.714376 12.316589 -1.606609 0.159802 -0.826819 -0.000000 0.000000 0.000000 0.000000 0.000000 0.000000 0.000000 
9.076720 16.479287 -0.122573 3.662445 79.881202 23.530571 -6.456882 0.990743 -7.117092 -1.688792 1.249991 -3.861405 -3.715732 1.158932 1.770510 9.969098 -6.621237 -6.195435 -0.875354 -0.086831 0.378407 0.000000 0.000000 0.000000 -2.377434 20.950412 1.858040 -45.791789 -3.164346 -43.371686 -0.175322 -82.757240 -0.154390 25.353788 7.564721 1.666275 -0.346555 0.262362 0.000000 0.000000 0.000000 0.000000 0.000000 0.000000 0.000000 0.794580 -1.470083 -2.635148 30.991954 41.670301 -1.084168 -179.016251 75.259818 179.854103 -12.638267 12.768504 -1.531488 0.139709 -0.839332 -0.000000 0.000000 0.000000 0.000000 0.000000 0.000000 0.000000 
9.274756 16.502959 -0.142897 3.455028 79.613225 22.972028 -6.275354 0.973145 -6.976473 -1.632480 1.226342 -3.801190 -3.680106 1.140279 1.873298 9.960739 -6.677992 -6.186777 -0.908859 -0.089379 0.381059 0.000000 0.000000 0.000000 -2.780396 21.014503 1.846553 -47.550398 -3.263904 -41.858187 -0.193143 -82.012793 -0.144777 24.646226 7.902294 1.696471 -0.330606 0.246721 0.000000 0.000000 0.000000 0.000000 0.000000 0.000000 0.000000 1.017449 -1.522915 -2.552597 31.123402 42.035532 0.142548 -179.071964 74.843978 179.864197 -11.473676 13.141826 -1.427985 0.117306 -0.849663 -0.000000 0.000000 0.000000 0.000000 0.000000 0.000000 0.000000 
